ffmpeg version 7.1.1-full_build-www.gyan.dev Copyright (c) 2000-2025 the FFmpeg developers
  built with gcc 14.2.0 (Rev1, Built by MSYS2 project)
  configuration: --enable-gpl --enable-version3 --enable-static --disable-w32threads --disable-autodetect --enable-fontconfig --enable-iconv --enable-gnutls --enable-lcms2 --enable-libxml2 --enable-gmp --enable-bzlib --enable-lzma --enable-libsnappy --enable-zlib --enable-librist --enable-libsrt --enable-libssh --enable-libzmq --enable-avisynth --enable-libbluray --enable-libcaca --enable-libdvdnav --enable-libdvdread --enable-sdl2 --enable-libaribb24 --enable-libaribcaption --enable-libdav1d --enable-libdavs2 --enable-libopenjpeg --enable-libquirc --enable-libuavs3d --enable-libxevd --enable-libzvbi --enable-libqrencode --enable-librav1e --enable-libsvtav1 --enable-libvvenc --enable-libwebp --enable-libx264 --enable-libx265 --enable-libxavs2 --enable-libxeve --enable-libxvid --enable-libaom --enable-libjxl --enable-libvpx --enable-mediafoundation --enable-libass --enable-frei0r --enable-libfreetype --enable-libfribidi --enable-libharfbuzz --enable-liblensfun --enable-libvidstab --enable-libvmaf --enable-libzimg --enable-amf --enable-cuda-llvm --enable-cuvid --enable-dxva2 --enable-d3d11va --enable-d3d12va --enable-ffnvcodec --enable-libvpl --enable-nvdec --enable-nvenc --enable-vaapi --enable-libshaderc --enable-vulkan --enable-libplacebo --enable-opencl --enable-libcdio --enable-libgme --enable-libmodplug --enable-libopenmpt --enable-libopencore-amrwb --enable-libmp3lame --enable-libshine --enable-libtheora --enable-libtwolame --enable-libvo-amrwbenc --enable-libcodec2 --enable-libilbc --enable-libgsm --enable-liblc3 --enable-libopencore-amrnb --enable-libopus --enable-libspeex --enable-libvorbis --enable-ladspa --enable-libbs2b --enable-libflite --enable-libmysofa --enable-librubberband --enable-libsoxr --enable-chromaprint
  libavutil      59. 39.100 / 59. 39.100
  libavcodec     61. 19.101 / 61. 19.101
  libavformat    61.  7.100 / 61.  7.100
  libavdevice    61.  3.100 / 61.  3.100
  libavfilter    10.  4.100 / 10.  4.100
  libswscale      8.  3.100 /  8.  3.100
  libswresample   5.  3.100 /  5.  3.100
  libpostproc    58.  3.100 / 58.  3.100
[hls @ 00000240834a8080] Skip ('#EXT-X-VERSION:3')
[hls @ 00000240834a8080] Skip ('#EXT-X-DISCONTINUITY-SEQUENCE:0')
[hls @ 00000240834a8080] Opening 'https://windansea.b-cdn.net/sunba/windansea/media-uy0hdasuz_6527.ts' for reading
[hls @ 00000240834a8080] Opening 'https://windansea.b-cdn.net/sunba/windansea/media-uy0hdasuz_6528.ts' for reading
Input #0, hls, from 'https://windansea.b-cdn.net/sunba/windansea/chunklist.m3u8':
  Duration: N/A, start: 970.233000, bitrate: N/A
  Program 0 
    Metadata:
      variant_bitrate : 0
  Stream #0:0: Data: timed_id3 (ID3  / 0x20334449)
      Metadata:
        variant_bitrate : 0
  Stream #0:1: Video: h264 (Main) ([27][0][0][0] / 0x001B), yuvj420p(pc, bt709), 1920x1080, 30 fps, 30.30 tbr, 90k tbn
      Metadata:
        variant_bitrate : 0
Stream mapping:
  Stream #0:1 -> #0:0 (h264 (native) -> mjpeg (native))
Press [q] to stop, [?] for help
[swscaler @ 000002408a292f00] deprecated pixel format used, make sure you did set range correctly
Output #0, mjpeg, to 'http://localhost:8551/stream.mjpeg':
  Metadata:
    encoder         : Lavf61.7.100
  Stream #0:0: Video: mjpeg, yuvj420p(pc, bt709, progressive), 1280x720, q=2-31, 200 kb/s, 2 fps, 2 tbn
      Metadata:
        variant_bitrate : 0
        encoder         : Lavc61.19.101 mjpeg
      Side data:
        cpb: bitrate max/min/avg: 0/0/200000 buffer size: 0 vbv_delay: N/A
frame=    1 fps=0.0 q=2.0 size=       0KiB time=00:00:00.50 bitrate=   0.0kbits/s dup=0 drop=12 speed=0.972x    frame=    2 fps=1.9 q=2.0 size=      23KiB time=00:00:01.00 bitrate= 190.3kbits/s dup=0 drop=27 speed=0.967x    frame=    3 fps=1.9 q=2.0 size=      47KiB time=00:00:01.50 bitrate= 254.8kbits/s dup=0 drop=41 speed=0.969x    frame=    4 fps=1.9 q=2.0 size=      73KiB time=00:00:02.00 bitrate= 299.1kbits/s dup=0 drop=56 speed=0.968x    frame=    5 fps=1.9 q=2.0 size=     102KiB time=00:00:02.50 bitrate= 333.7kbits/s dup=0 drop=70 speed=0.968x    frame=    6 fps=1.9 q=2.0 size=     132KiB time=00:00:03.00 bitrate= 359.7kbits/s dup=0 drop=85 speed=0.972x    frame=    7 fps=1.9 q=2.0 size=     163KiB time=00:00:03.50 bitrate= 380.8kbits/s dup=0 drop=99 speed=0.972x    frame=    8 fps=1.9 q=2.0 size=     190KiB time=00:00:04.00 bitrate= 388.5kbits/s dup=0 drop=114 speed=0.972x    frame=    9 fps=1.9 q=2.0 size=     219KiB time=00:00:04.50 bitrate= 398.8kbits/s dup=0 drop=129 speed=0.971x    frame=   10 fps=1.9 q=2.0 size=     250KiB time=00:00:05.00 bitrate= 408.9kbits/s dup=0 drop=143 speed=0.97x    frame=   11 fps=1.9 q=2.0 size=     281KiB time=00:00:05.50 bitrate= 418.1kbits/s dup=0 drop=158 speed=0.97x    frame=   12 fps=1.9 q=2.0 size=     308KiB time=00:00:06.00 bitrate= 420.0kbits/s dup=0 drop=173 speed=0.97x    frame=   13 fps=1.9 q=2.0 size=     337KiB time=00:00:06.50 bitrate= 424.8kbits/s dup=0 drop=187 speed=0.97x    frame=   14 fps=1.9 q=2.0 size=     367KiB time=00:00:07.00 bitrate= 430.0kbits/s dup=0 drop=202 speed=0.97x    frame=   15 fps=1.9 q=2.0 size=     391KiB time=00:00:07.50 bitrate= 426.6kbits/s dup=0 drop=217 speed=0.969x    frame=   16 fps=1.9 q=2.0 size=     418KiB time=00:00:08.00 bitrate= 427.7kbits/s dup=0 drop=231 speed=0.969x    frame=   17 fps=1.9 q=2.0 size=     447KiB time=00:00:08.50 bitrate= 430.7kbits/s dup=0 drop=246 speed=0.969x    frame=   18 fps=1.9 q=2.0 size=     477KiB time=00:00:09.00 bitrate= 434.6kbits/s dup=0 drop=261 speed=0.969x    frame=   18 fps=1.8 q=2.0 size=     477KiB time=00:00:09.00 bitrate= 434.6kbits/s dup=0 drop=263 speed=0.918x    [hls @ 00000240834a8080] Skip ('#EXT-X-VERSION:3')
[hls @ 00000240834a8080] Skip ('#EXT-X-DISCONTINUITY-SEQUENCE:0')
[hls @ 00000240834a8080] skipping 2 segments ahead, expired from playlists
[https @ 000002408354a580] Opening 'https://windansea.b-cdn.net/sunba/windansea/media-uy0hdasuz_6531.ts' for reading
frame=   20 fps=1.9 q=2.0 size=     528KiB time=00:00:10.00 bitrate= 432.7kbits/s dup=0 drop=290 speed=0.969x    frame=   21 fps=1.9 q=2.0 size=     558KiB time=00:00:10.50 bitrate= 435.1kbits/s dup=0 drop=305 speed=0.969x    frame=   22 fps=1.9 q=2.0 size=     588KiB time=00:00:11.00 bitrate= 438.0kbits/s dup=0 drop=319 speed=0.968x    frame=   23 fps=1.9 q=2.0 size=     612KiB time=00:00:11.50 bitrate= 435.8kbits/s dup=0 drop=334 speed=0.969x    frame=   24 fps=1.9 q=2.0 size=     639KiB time=00:00:12.00 bitrate= 436.4kbits/s dup=0 drop=349 speed=0.968x    frame=   25 fps=1.9 q=2.0 size=     669KiB time=00:00:12.50 bitrate= 438.3kbits/s dup=0 drop=363 speed=0.968x    frame=   26 fps=1.9 q=2.0 size=     700KiB time=00:00:13.00 bitrate= 440.9kbits/s dup=0 drop=378 speed=0.968x    frame=   27 fps=1.9 q=2.0 size=     724KiB time=00:00:13.50 bitrate= 439.0kbits/s dup=0 drop=392 speed=0.969x    frame=   29 fps=2.0 q=2.0 size=     781KiB time=00:00:14.50 bitrate= 441.2kbits/s dup=0 drop=407 speed=   1x    frame=   29 fps=1.9 q=2.0 size=     781KiB time=00:00:14.50 bitrate= 441.2kbits/s dup=0 drop=421 speed=0.969x    frame=   31 fps=2.0 q=2.0 size=     835KiB time=00:00:15.50 bitrate= 441.4kbits/s dup=0 drop=436 speed=   1x    frame=   32 fps=2.0 q=2.0 size=     862KiB time=00:00:16.00 bitrate= 441.4kbits/s dup=0 drop=450 speed=   1x    frame=   33 fps=2.0 q=2.0 size=     891KiB time=00:00:16.50 bitrate= 442.3kbits/s dup=0 drop=464 speed=0.999x    [out#0/mjpeg @ 0000024083a4d700] video:1031KiB audio:0KiB subtitle:0KiB other streams:0KiB global headers:0KiB muxing overhead: 0.000000%
frame=   37 fps=2.2 q=2.0 Lsize=    1031KiB time=00:00:18.50 bitrate= 456.6kbits/s dup=0 drop=495 speed=1.09x    
Exiting normally, received signal 15.
=    1001KiB time=00:00:18.50 bitrate= 443.3kbits/s dup=0 drop=523 speed=0.996x    frame=   38 fps=2.0 q=2.0 size=    1031KiB time=00:00:19.00 bitrate= 444.6kbits/s dup=0 drop=538 speed=0.995x    [https @ 0000026d3e7e9440] Opening 'https://windansea.b-cdn.net/sunba/windansea/media-uy0hdasuz_6530.ts' for reading
frame=   39 fps=2.0 q=2.0 size=    1051KiB time=00:00:19.50 bitrate= 441.5kbits/s dup=0 drop=552 speed=0.995x    frame=   40 fps=2.0 q=2.0 size=    1072KiB time=00:00:20.00 bitrate= 439.1kbits/s dup=0 drop=567 speed=0.994x    frame=   41 fps=2.0 q=2.0 size=    1094KiB time=00:00:20.50 bitrate= 437.3kbits/s dup=0 drop=581 speed=0.994x    frame=   42 fps=2.0 q=2.0 size=    1117KiB time=00:00:21.00 bitrate= 435.7kbits/s dup=0 drop=596 speed=0.993x    frame=   43 fps=2.0 q=2.0 size=    1136KiB time=00:00:21.50 bitrate= 432.9kbits/s dup=0 drop=611 speed=0.992x    frame=   44 fps=2.0 q=2.0 size=    1156KiB time=00:00:22.00 bitrate= 430.6kbits/s dup=0 drop=625 speed=0.992x    frame=   45 fps=2.0 q=2.0 size=    1178KiB time=00:00:22.50 bitrate= 428.8kbits/s dup=0 drop=640 speed=0.991x    frame=   46 fps=2.0 q=2.0 size=    1200KiB time=00:00:23.00 bitrate= 427.5kbits/s dup=0 drop=655 speed=0.991x    frame=   47 fps=2.0 q=2.0 size=    1220KiB time=00:00:23.50 bitrate= 425.2kbits/s dup=0 drop=669 speed=0.99x    frame=   48 fps=2.0 q=2.0 size=    1240KiB time=00:00:24.00 bitrate= 423.3kbits/s dup=0 drop=684 speed=0.99x    frame=   49 fps=2.0 q=2.0 size=    1262KiB time=00:00:24.50 bitrate= 421.9kbits/s dup=0 drop=699 speed=0.989x    frame=   50 fps=2.0 q=2.0 size=    1284KiB time=00:00:25.00 bitrate= 420.7kbits/s dup=0 drop=713 speed=0.989x    frame=   51 fps=2.0 q=2.0 size=    1303KiB time=00:00:25.50 bitrate= 418.6kbits/s dup=0 drop=728 speed=0.989x    frame=   52 fps=2.0 q=2.0 size=    1323KiB time=00:00:26.00 bitrate= 416.9kbits/s dup=0 drop=742 speed=0.988x    frame=   53 fps=2.0 q=2.0 size=    1344KiB time=00:00:26.50 bitrate= 415.6kbits/s dup=0 drop=757 speed=0.988x    frame=   54 fps=2.0 q=2.0 size=    1366KiB time=00:00:27.00 bitrate= 414.6kbits/s dup=0 drop=772 speed=0.988x    frame=   55 fps=2.0 q=2.0 size=    1385KiB time=00:00:27.50 bitrate= 412.7kbits/s dup=0 drop=786 speed=0.987x    frame=   56 fps=2.0 q=2.0 size=    1406KiB time=00:00:28.00 bitrate= 411.3kbits/s dup=0 drop=801 speed=0.987x    frame=   57 fps=2.0 q=2.0 size=    1427KiB time=00:00:28.50 bitrate= 410.1kbits/s dup=0 drop=816 speed=0.987x    frame=   58 fps=2.0 q=2.0 size=    1449KiB time=00:00:29.00 bitrate= 409.3kbits/s dup=0 drop=830 speed=0.986x    frame=   59 fps=2.0 q=2.0 size=    1468KiB time=00:00:29.50 bitrate= 407.7kbits/s dup=0 drop=845 speed=0.986x    frame=   61 fps=2.0 q=2.0 size=    1510KiB time=00:00:30.50 bitrate= 405.5kbits/s dup=0 drop=860 speed=   1x    frame=   62 fps=2.0 q=2.0 size=    1532KiB time=00:00:31.00 bitrate= 404.8kbits/s dup=0 drop=874 speed=   1x    [https @ 0000026d4f8252c0] Opening 'https://windansea.b-cdn.net/sunba/windansea/chunklist.m3u8' for reading
[hls @ 0000026d3e338080] Skip ('#EXT-X-VERSION:3')
[hls @ 0000026d3e338080] Skip ('#EXT-X-DISCONTINUITY-SEQUENCE:0')
[hls @ 0000026d3e338080] skipping 1 segments ahead, expired from playlists
[https @ 0000026d3e3da580] Opening 'https://windansea.b-cdn.net/sunba/windansea/media-uy0hdasuz_6532.ts' for reading
frame=   63 fps=2.0 q=2.0 size=    1551KiB time=00:00:31.50 bitrate= 403.4kbits/s dup=0 drop=889 speed=   1x    frame=   64 fps=2.0 q=2.0 size=    1572KiB time=00:00:32.00 bitrate= 402.4kbits/s dup=0 drop=903 speed=   1x    frame=   65 fps=2.0 q=2.0 size=    1593KiB time=00:00:32.50 bitrate= 401.7kbits/s dup=0 drop=917 speed=   1x    frame=   66 fps=2.0 q=2.0 size=    1616KiB time=00:00:33.00 bitrate= 401.2kbits/s dup=0 drop=931 speed=   1x    frame=   67 fps=2.0 q=2.0 size=    1636KiB time=00:00:33.50 bitrate= 400.0kbits/s dup=0 drop=946 speed=0.999x    frame=   68 fps=2.0 q=2.0 size=    1656KiB time=00:00:34.00 bitrate= 399.1kbits/s dup=0 drop=961 speed=0.999x    frame=   69 fps=2.0 q=2.0 size=    1678KiB time=00:00:34.50 bitrate= 398.5kbits/s dup=0 drop=975 speed=0.998x    frame=   70 fps=2.0 q=2.0 size=    1701KiB time=00:00:35.00 bitrate= 398.1kbits/s dup=0 drop=990 speed=0.998x    